# xmcd
#
# Track frame offsets:
#	150
#	29760
#	59787
#	91460
#	115847
#	137732
#	164077
#	208380
#	240560
#
# Disc length: 3582 seconds
#
# Revision: 1
# Processed by: cddbd v1.5.1PL2 Copyright (c) Steve Scherf et al.
# Submitted via: CDmax 2.0
#
DISCID=8e0dfc09
DTITLE=Eric Clapton - Le Zenith (disc1)
DYEAR=1987
DGENRE=Blues
TTITLE0=Crossroads
TTITLE1=White Room
TTITLE2=I Shot the Sheriff
TTITLE3=Hung Up on Your Love
TTITLE4=Wonderful Tonight
TTITLE5=Miss You
TTITLE6=Same Old Blues
TTITLE7=Tearing Us Apart
TTITLE8=Holy Mother
EXTD=Eric Clapton\tguitar, vocals\nMark Knopfler\tguitar\nNathan East\tbass\n
EXTD=Steve Ferrone\tdrums\nGreg Phillinganes\tkeyboards\n\nRecorded live at l
EXTD=e Zenith, Paris, France on January 18th, 1987
EXTT0=
EXTT1=
EXTT2=
EXTT3=
EXTT4=
EXTT5=
EXTT6=
EXTT7=
EXTT8=
PLAYORDER=
